<svg xmlns="http://www.w3.org/2000/svg" width="903" height="370" viewBox="0 0 903 370"><defs><style type="text/css"/></defs><g transform="translate(466.9296875 339.9778143874229) scale(1)"><g class="relationship"><g transform="translate(-338 -24.756972983322886) rotate(-36.07261720350341)" stroke-width="5" stroke="#000000"><path d="M 59 0 L 291.166790049641 0"/><polygon points="-24.8621506177483,0 -27.62461179749811,9.20820393249937 0,0 -27.62461179749811,-9.20820393249937" fill="#000000" transform="translate(316.0289406673893 0) rotate(0)" stroke="none"/></g><g transform="translate(-196.48510263396705 -127.84785054723974) rotate(-36.07261720350341) translate(0 -13)"><g transform="translate(0 0)"><g transform="translate(-65.76171875 0)" fill="#ffffff" stroke="#000000" stroke-width="0"><rect x="0" y="0" width="131.5234375" height="26" rx="5" ry="5" stroke="none"/><text xml:space="preserve" x="5" y="17.5" stroke="none" text-anchor="left" font-family="sans-serif" font-size="16" font-weight="normal" fill="#000000">[:BELONGS_TO]</text></g></g></g></g><g class="relationship"><g transform="translate(-34.87484047065715 -245.57781438742285) rotate(36.07261720350341)" stroke-width="5" stroke="#000000"><path d="M 59 0 L 291.166790049641 0"/><polygon points="-24.8621506177483,0 -27.62461179749811,9.20820393249937 0,0 -27.62461179749811,-9.20820393249937" fill="#000000" transform="translate(316.0289406673893 0) rotate(0)" stroke="none"/></g><g transform="translate(106.6400568953758 -142.48693682350597) rotate(36.07261720350341) translate(0 -22.6)"><g transform="translate(0 0)"><g transform="translate(-73.3125 0)" fill="#ffffff" stroke="#000000" stroke-width="0"><rect x="0" y="0" width="146.625" height="26" rx="5" ry="5" stroke="none"/><text xml:space="preserve" x="5" y="17.5" stroke="none" text-anchor="left" font-family="sans-serif" font-size="16" font-weight="normal" fill="#000000">PARTICIPATES_IN</text></g></g><g transform="translate(0 26)"><g transform="translate(-63.58984375 0)" fill="white"><rect x="0" y="0" width="127.1796875" height="19.2" rx="0" ry="0" stroke="none"/><g font-family="sans-serif" font-size="16" font-weight="normal" fill="#000000" text-anchor="end"><text xml:space="preserve" x="118.2890625" y="14.1" stroke="none">home_or_away:</text><text xml:space="preserve" x="122.734375" y="14.1" stroke="none" text-anchor="start"></text></g></g></g></g></g><g class="relationship"><g transform="translate(-338 -24.756972983322886) rotate(0)" stroke-width="5" stroke="#000000"><path d="M 59 0 L 522.3881684409374 0"/><polygon points="-24.8621506177483,0 -27.62461179749811,9.20820393249937 0,0 -27.62461179749811,-9.20820393249937" fill="#000000" transform="translate(547.2503190586857 0) rotate(0)" stroke="none"/></g><g transform="translate(-47.30591577953129 -24.756972983322886) rotate(0) translate(0 -41.8)"><g transform="translate(0 0)"><g transform="translate(-70.9375 0)" fill="#ffffff" stroke="#000000" stroke-width="0"><rect x="0" y="0" width="141.875" height="26" rx="5" ry="5" stroke="none"/><text xml:space="preserve" x="5" y="17.5" stroke="none" text-anchor="left" font-family="sans-serif" font-size="16" font-weight="normal" fill="#000000">HAS_STATISTICS</text></g></g><g transform="translate(0 26)"><g transform="translate(-42.25 0)" fill="white"><rect x="0" y="0" width="84.5" height="57.599999999999994" rx="0" ry="0" stroke="none"/><g font-family="sans-serif" font-size="16" font-weight="normal" fill="#000000" text-anchor="end"><text xml:space="preserve" x="75.609375" y="14.1" stroke="none">points:</text><text xml:space="preserve" x="80.0546875" y="14.1" stroke="none" text-anchor="start"></text><text xml:space="preserve" x="75.609375" y="33.3" stroke="none" text-anchor="end">assists:</text><text xml:space="preserve" x="80.0546875" y="33.3" stroke="none" text-anchor="start"></text><text xml:space="preserve" x="75.609375" y="52.5" stroke="none" text-anchor="end">rebounds:</text><text xml:space="preserve" x="80.0546875" y="52.5" stroke="none" text-anchor="start"></text></g></g></g></g></g><g class="node"><g fill="#ffffff" stroke="#000000" stroke-width="4"><circle cx="-338" cy="-24.756972983322886" r="52"/></g><g transform="translate(-338 -24.756972983322886)"><g transform="scale(0.4414068085937499) translate(0 0)"><g transform="translate(0 0)"><g font-family="sans-serif" font-size="50" font-weight="normal" fill="#000000" text-anchor="middle"><text xml:space="preserve" x="0" y="13" stroke="none">PLAYER</text></g></g></g><g transform="translate(-56 -47.99999999999999)"><g transform="translate(0 0)"><g transform="translate(-72.9296875 0)" fill="white"><rect x="0" y="0" width="72.9296875" height="96" rx="0" ry="0" stroke="none"/><g font-family="sans-serif" font-size="16" font-weight="normal" fill="#000000" text-anchor="end"><text xml:space="preserve" x="64.0390625" y="14.1" stroke="none">code:</text><text xml:space="preserve" x="68.484375" y="14.1" stroke="none" text-anchor="start"></text><text xml:space="preserve" x="64.0390625" y="33.3" stroke="none" text-anchor="end">name:</text><text xml:space="preserve" x="68.484375" y="33.3" stroke="none" text-anchor="start"></text><text xml:space="preserve" x="64.0390625" y="52.5" stroke="none" text-anchor="end">position:</text><text xml:space="preserve" x="68.484375" y="52.5" stroke="none" text-anchor="start"></text><text xml:space="preserve" x="64.0390625" y="71.7" stroke="none" text-anchor="end">height:</text><text xml:space="preserve" x="68.484375" y="71.7" stroke="none" text-anchor="start"></text><text xml:space="preserve" x="64.0390625" y="90.89999999999999" stroke="none" text-anchor="end">weight:</text><text xml:space="preserve" x="68.484375" y="90.89999999999999" stroke="none" text-anchor="start"></text></g></g></g></g></g></g><g class="node"><g fill="#ffffff" stroke="#000000" stroke-width="4"><circle cx="-34.87484047065715" cy="-245.57781438742285" r="52"/></g><g transform="translate(-34.87484047065715 -245.57781438742285)"><g transform="scale(0.59375040625) translate(0 0)"><g transform="translate(0 0)"><g font-family="sans-serif" font-size="50" font-weight="normal" fill="#000000" text-anchor="middle"><text xml:space="preserve" x="0" y="13" stroke="none">TEAM</text></g></g></g><g transform="translate(3.429011037612589e-15 -94.4)"><g transform="translate(0 0)"><g transform="translate(-28.90234375 0)" fill="white"><rect x="0" y="0" width="57.8046875" height="38.4" rx="0" ry="0" stroke="none"/><g font-family="sans-serif" font-size="16" font-weight="normal" fill="#000000" text-anchor="end"><text xml:space="preserve" x="48.9140625" y="14.1" stroke="none">name:</text><text xml:space="preserve" x="53.359375" y="14.1" stroke="none" text-anchor="start"></text><text xml:space="preserve" x="48.9140625" y="33.3" stroke="none" text-anchor="end">citry:</text><text xml:space="preserve" x="53.359375" y="33.3" stroke="none" text-anchor="start"></text></g></g></g></g></g></g><g class="node"><g fill="#ffffff" stroke="#000000" stroke-width="4"><circle cx="268.2503190586857" cy="-24.756972983322886" r="52"/></g><g transform="translate(268.2503190586857 -24.756972983322886)"><g transform="scale(0.5625004375) translate(0 0)"><g transform="translate(0 0)"><g font-family="sans-serif" font-size="50" font-weight="normal" fill="#000000" text-anchor="middle"><text xml:space="preserve" x="0" y="13" stroke="none">GAME</text></g></g></g><g transform="translate(56 -28.799999999999997)"><g transform="translate(0 0)"><g transform="translate(0 0)" fill="white"><rect x="0" y="0" width="111.15625" height="57.599999999999994" rx="0" ry="0" stroke="none"/><g font-family="sans-serif" font-size="16" font-weight="normal" fill="#000000" text-anchor="end"><text xml:space="preserve" x="102.265625" y="14.1" stroke="none">home_points:</text><text xml:space="preserve" x="106.7109375" y="14.1" stroke="none" text-anchor="start"></text><text xml:space="preserve" x="102.265625" y="33.3" stroke="none" text-anchor="end">visitor_points:</text><text xml:space="preserve" x="106.7109375" y="33.3" stroke="none" text-anchor="start"></text><text xml:space="preserve" x="102.265625" y="52.5" stroke="none" text-anchor="end">match_date:</text><text xml:space="preserve" x="106.7109375" y="52.5" stroke="none" text-anchor="start"></text></g></g></g></g></g></g></g></svg>